<svg width="29" height="37" viewBox="0 0 29 37" fill="none" xmlns="http://www.w3.org/2000/svg">
<path d="M29 7.27136L26.358 34.024L14.4822 37L2.63918 34.0282L0 7.27136H29Z" fill="#264DE4"/>
<path d="M24.0962 32.3205L26.3539 9.45917H14.5V34.7253L24.0962 32.3205Z" fill="#2965F1"/>
<path d="M6.05023 19.3829L6.37562 22.6645H14.5V19.3829H6.05023Z" fill="#EBEBEB"/>
<path d="M14.5 12.7408H14.4874H5.39642L5.72645 16.0224H14.5V12.7408Z" fill="#EBEBEB"/>
<path d="M14.5 31.3198V27.9056L14.4841 27.9094L10.4408 26.9225L10.1823 24.3053H8.21759H6.53787L7.0465 29.4579L14.4833 31.324L14.5 31.3198Z" fill="#EBEBEB"/>
<path d="M6.82495 0H11.2221V1.66211H8.66376V3.32422H11.2221V4.98633H6.82495V0Z" fill="black"/>
<path d="M12.1015 0H16.4987V1.44531H13.9403V1.73438H16.4987V5.05859H12.1015V3.54102H14.6599V3.25195H12.1015V0Z" fill="black"/>
<path d="M17.3781 0H21.7753V1.44531H19.217V1.73438H21.7753V5.05859H17.3781V3.54102H19.9365V3.25195H17.3781V0Z" fill="black"/>
<path d="M18.958 22.6644L18.5366 26.9205L14.4875 27.9083V31.3224L21.9302 29.4579L21.9848 28.9035L22.8379 20.2641L22.9265 19.3829L23.5819 12.7408H14.4875V16.0224H19.6032L19.2728 19.3829H14.4875V22.6644H18.958Z" fill="white"/>
</svg>
