<svg width="31" height="40" viewBox="0 0 31 40" fill="none" xmlns="http://www.w3.org/2000/svg">
<path d="M3.68047 0H5.52226V1.78125H7.21992V0H9.06172V5.39062H7.21992V3.59375H5.53828V5.39062H3.68047V0ZM11.4961 1.79688H9.87051V0H14.9715V1.79688H13.3379V5.39062H11.4961V1.79688ZM15.7803 0H17.7102L18.8953 1.89844L20.0805 0H22.0104V5.39062H20.1686V2.71875L18.8793 4.65625L17.59 2.71875V5.39062H15.7803V0ZM22.9232 0H24.765V3.60938H27.3756V5.39062H22.9232" fill="black"/>
<path d="M3.61641 36.7969L0.973831 7.85938H30.0262L27.3836 36.7812L15.476 40" fill="#E44D26"/>
<path d="M15.5 37.5391V10.2344H27.3756L25.1094 34.9219" fill="#F16529"/>
<path d="M6.37109 13.7734H15.5V17.3203H10.359L10.6953 20.9531H15.5V24.4922H7.36406L6.37109 13.7734ZM7.52422 26.2734H11.1758L11.432 29.1094L15.5 30.1719V33.875L8.03672 31.8438" fill="#EBEBEB"/>
<path d="M24.5969 13.7734H15.484V17.3203H24.2605L24.5969 13.7734ZM23.9322 20.9531H15.484V24.5H19.9684L19.5439 29.1094L15.484 30.1719V33.8594L22.9312 31.8438" fill="white"/>
</svg>
