<svg width="444" height="450" viewBox="0 0 444 450" fill="none" xmlns="http://www.w3.org/2000/svg">
<path d="M41.4565 356.572L3.17975 342.842C-1.03422 321.413 -0.0892947 299.251 5.9325 278.282C20.4533 314.173 65.7428 324.207 90.8891 353.257C98.6644 362.379 104.341 373.18 107.497 384.861C110.654 396.541 111.209 408.801 109.123 420.732L116.452 449.28C97.5167 447.051 79.2768 440.633 62.9896 430.47C46.7023 420.306 32.7548 406.638 22.108 390.407C16.2231 381.241 11.4858 371.351 8.00811 360.969C24.5308 359.766 41.4565 356.572 41.4565 356.572Z" fill="#F2F2F2"/>
<path d="M301.686 30.8821V344.704L300.625 357.771C298.763 380.453 289.404 401.8 274.1 418.271C271.93 420.601 269.66 422.808 267.29 424.891C264.372 427.474 261.304 429.873 258.102 432.072C256.27 433.336 254.393 434.529 252.484 435.659C241.386 442.239 229.128 446.495 216.417 448.181H125.339C118.091 448.187 111.086 445.496 105.624 440.605C102.92 438.188 100.653 435.3 98.9293 432.072C96.5203 427.544 95.2607 422.466 95.2665 417.307V30.8821C95.2766 22.6949 98.449 14.8459 104.088 9.05666C109.727 3.2674 117.372 0.0104369 125.346 3.05176e-05H271.614C271.96 3.05176e-05 272.299 0.00792209 272.645 0.0158223C272.868 0.0237226 273.092 0.0316252 273.315 0.055326C273.615 0.0632262 273.915 0.0869284 274.207 0.118529C274.584 0.14223 274.954 0.181695 275.323 0.229096C275.662 0.276498 276 0.323901 276.339 0.379203C276.408 0.387103 276.47 0.402898 276.539 0.410799C276.97 0.481901 277.401 0.560901 277.824 0.655704C278.247 0.742607 278.678 0.845314 279.094 0.955917C279.394 1.03492 279.702 1.12182 280.002 1.20872C280.009 1.20872 280.025 1.21663 280.033 1.21663C280.917 1.48524 281.795 1.79334 282.657 2.14889C282.926 2.25155 283.195 2.3701 283.457 2.4886L283.572 2.536C283.788 2.63081 283.996 2.72561 284.203 2.82831C284.827 3.12062 285.442 3.44453 286.05 3.78424C287.05 4.35025 288.018 4.9727 288.951 5.64874C289.251 5.86201 289.544 6.09116 289.828 6.32026C290.067 6.50197 290.305 6.69157 290.536 6.89698C290.556 6.90746 290.574 6.92076 290.59 6.93648C290.621 6.96018 290.652 6.99178 290.683 7.01548C290.89 7.18138 291.09 7.3552 291.283 7.529C291.66 7.86081 292.029 8.20842 292.391 8.56393C292.491 8.65873 292.591 8.75353 292.691 8.85624C292.791 8.95104 292.883 9.05375 292.983 9.15645C293.083 9.25125 293.176 9.35395 293.268 9.44876C293.323 9.49741 293.375 9.55023 293.422 9.60677C293.699 9.90698 293.968 10.2151 294.23 10.5232C294.561 10.9103 294.884 11.3053 295.184 11.7082C295.446 12.04 295.692 12.3719 295.931 12.7116C296.154 13.0196 296.361 13.3278 296.569 13.6438C296.625 13.7224 296.676 13.8042 296.723 13.8887C296.939 14.2126 297.139 14.5444 297.339 14.8762C297.839 15.7137 298.293 16.5827 298.708 17.4596C298.862 17.7914 299.009 18.1153 299.147 18.4471C299.324 18.85 299.486 19.253 299.64 19.6559C299.701 19.806 299.755 19.964 299.809 20.1141C299.893 20.3432 299.97 20.5723 300.047 20.8014C300.132 21.0542 300.217 21.3149 300.294 21.5677L300.478 22.184C300.586 22.5553 300.678 22.9187 300.771 23.29C300.825 23.5112 300.878 23.7324 300.925 23.9615C301.286 25.5749 301.52 27.2156 301.625 28.8676C301.633 29.073 301.648 29.2705 301.656 29.4759C301.679 29.942 301.686 30.408 301.686 30.8821Z" fill="#3F3D56"/>
<path d="M93.1797 140.599C92.2823 140.598 91.422 140.232 90.7874 139.58C90.1528 138.929 89.7958 138.046 89.7948 137.124V113.493C89.7941 113.036 89.8812 112.583 90.051 112.161C90.2208 111.739 90.47 111.355 90.7844 111.032C91.0988 110.709 91.4722 110.452 91.8832 110.277C92.2942 110.102 92.7348 110.012 93.1797 110.012C93.6247 110.012 94.0653 110.102 94.4763 110.277C94.8873 110.452 95.2607 110.709 95.5751 111.032C95.8895 111.355 96.1387 111.739 96.3085 112.161C96.4783 112.583 96.5654 113.036 96.5647 113.493V137.124C96.5637 138.046 96.2067 138.929 95.5721 139.58C94.9375 140.232 94.0772 140.598 93.1797 140.599V140.599Z" fill="#3F3D56"/>
<path d="M92.5028 94.7266C91.6053 94.7256 90.7449 94.3591 90.1104 93.7076C89.4758 93.0561 89.1188 92.1728 89.1178 91.2514V67.62C89.1192 66.6992 89.4764 65.8166 90.111 65.166C90.7457 64.5154 91.6059 64.15 92.5028 64.15C93.3996 64.15 94.2598 64.5154 94.8945 65.166C95.5291 65.8166 95.8864 66.6992 95.8877 67.62V91.2514C95.8867 92.1727 95.5297 93.0561 94.8951 93.7076C94.2605 94.3591 93.4002 94.7255 92.5028 94.7266V94.7266Z" fill="#3F3D56"/>
<path d="M175.617 11.4813C175.618 10.56 175.975 9.67667 176.61 9.02517C177.244 8.37368 178.104 8.00719 179.002 8.00612H202.02C202.917 8.00612 203.778 8.37225 204.413 9.02398C205.048 9.67571 205.405 10.5596 205.405 11.4813C205.405 12.403 205.048 13.287 204.413 13.9387C203.778 14.5904 202.917 14.9565 202.02 14.9565H179.002C178.104 14.9555 177.244 14.589 176.61 13.9375C175.975 13.286 175.618 12.4027 175.617 11.4813V11.4813Z" fill="white"/>
<path d="M93.1797 180.912C92.2823 180.911 91.422 180.544 90.7874 179.893C90.1528 179.241 89.7958 178.358 89.7948 177.437V153.805C89.7941 153.348 89.8812 152.896 90.051 152.474C90.2208 152.051 90.47 151.668 90.7844 151.344C91.0988 151.021 91.4722 150.765 91.8832 150.59C92.2942 150.415 92.7348 150.325 93.1797 150.325C93.6247 150.325 94.0653 150.415 94.4763 150.59C94.8873 150.765 95.2607 151.021 95.5751 151.344C95.8895 151.668 96.1387 152.051 96.3085 152.474C96.4783 152.896 96.5654 153.348 96.5647 153.805V177.437C96.5636 178.358 96.2067 179.241 95.5721 179.893C94.9375 180.544 94.0772 180.911 93.1797 180.912V180.912Z" fill="#3F3D56"/>
<path d="M304.024 129.56C303.127 129.559 302.267 129.193 301.632 128.541C300.997 127.89 300.64 127.006 300.639 126.085V102.454C300.639 101.997 300.726 101.544 300.896 101.122C301.065 100.7 301.315 100.316 301.629 99.9929C301.943 99.6696 302.317 99.4132 302.728 99.2382C303.139 99.0632 303.579 98.9732 304.024 98.9732C304.469 98.9732 304.91 99.0632 305.321 99.2382C305.732 99.4132 306.105 99.6696 306.42 99.9929C306.734 100.316 306.983 100.7 307.153 101.122C307.323 101.544 307.41 101.997 307.409 102.454V126.085C307.408 127.006 307.051 127.89 306.417 128.541C305.782 129.193 304.922 129.559 304.024 129.56V129.56Z" fill="#3F3D56"/>
<path d="M214.882 14.9565C216.752 14.9565 218.267 13.4006 218.267 11.4813C218.267 9.56202 216.752 8.00612 214.882 8.00612C213.013 8.00612 211.497 9.56202 211.497 11.4813C211.497 13.4006 213.013 14.9565 214.882 14.9565Z" fill="white"/>
<path d="M286.715 42.0313H110.249C110.045 42.0266 109.85 41.9401 109.707 41.7901C109.565 41.6402 109.485 41.4388 109.485 41.2291C109.485 41.0194 109.565 40.818 109.707 40.6681C109.85 40.5182 110.045 40.4316 110.249 40.427H286.715C286.919 40.4316 287.113 40.5182 287.256 40.6681C287.399 40.818 287.479 41.0194 287.479 41.2291C287.479 41.4388 287.399 41.6402 287.256 41.7901C287.113 41.9401 286.919 42.0266 286.715 42.0313V42.0313Z" fill="white"/>
<path d="M123.623 36.3313C126.152 36.3313 128.202 34.1797 128.202 31.5256C128.202 28.8714 126.152 26.7198 123.623 26.7198C121.094 26.7198 119.044 28.8714 119.044 31.5256C119.044 34.1797 121.094 36.3313 123.623 36.3313Z" fill="white"/>
<path d="M139.441 36.3313C141.97 36.3313 144.02 34.1797 144.02 31.5256C144.02 28.8714 141.97 26.7198 139.441 26.7198C136.912 26.7198 134.862 28.8714 134.862 31.5256C134.862 34.1797 136.912 36.3313 139.441 36.3313Z" fill="white"/>
<path d="M155.259 36.3313C157.788 36.3313 159.838 34.1797 159.838 31.5256C159.838 28.8714 157.788 26.7198 155.259 26.7198C152.73 26.7198 150.68 28.8714 150.68 31.5256C150.68 34.1797 152.73 36.3313 155.259 36.3313Z" fill="white"/>
<path d="M277.191 27.911H265.955C265.732 27.9156 265.52 28.0096 265.364 28.1729C265.208 28.3362 265.121 28.5558 265.121 28.7845C265.121 29.0132 265.208 29.2327 265.364 29.3961C265.52 29.5594 265.732 29.6534 265.955 29.658H277.191C277.413 29.6534 277.626 29.5594 277.781 29.3961C277.937 29.2327 278.025 29.0132 278.025 28.7845C278.025 28.5558 277.937 28.3362 277.781 28.1729C277.626 28.0096 277.413 27.9156 277.191 27.911V27.911Z" fill="white"/>
<path d="M277.191 31.1897H265.955C265.732 31.1943 265.52 31.2883 265.364 31.4517C265.208 31.615 265.121 31.8345 265.121 32.0632C265.121 32.2919 265.208 32.5115 265.364 32.6748C265.52 32.8381 265.732 32.9321 265.955 32.9367H277.191C277.413 32.9321 277.626 32.8381 277.781 32.6748C277.937 32.5115 278.025 32.2919 278.025 32.0632C278.025 31.8345 277.937 31.615 277.781 31.4517C277.626 31.2883 277.413 31.1943 277.191 31.1897V31.1897Z" fill="white"/>
<path d="M277.191 34.4642H265.955C265.732 34.4688 265.52 34.5628 265.364 34.7261C265.208 34.8894 265.121 35.109 265.121 35.3377C265.121 35.5664 265.208 35.7859 265.364 35.9493C265.52 36.1126 265.732 36.2066 265.955 36.2112H277.191C277.413 36.2066 277.626 36.1126 277.781 35.9493C277.937 35.7859 278.025 35.5664 278.025 35.3377C278.025 35.109 277.937 34.8894 277.781 34.7261C277.626 34.5628 277.413 34.4688 277.191 34.4642V34.4642Z" fill="white"/>
<path d="M152.282 164.633C152.359 165.753 152.68 166.841 153.223 167.816C154.435 169.847 156.269 171.409 158.437 172.256C161.075 173.364 164.015 173.398 166.815 173.151C169.415 172.922 171.988 172.39 174.598 172.28C176.616 172.214 178.636 172.263 180.649 172.428C184.554 172.713 188.442 173.241 192.306 173.881C193.352 174.052 194.397 174.236 195.439 174.433C195.537 174.442 195.634 174.46 195.73 174.488C195.748 174.496 195.779 174.49 195.796 174.501C195.828 174.522 195.669 174.45 195.765 174.531C195.899 174.676 196.019 174.834 196.122 175.003L197.549 176.888C197.924 177.481 198.366 178.026 198.867 178.512C199.24 178.807 199.689 178.983 200.16 179.017C200.63 179.05 201.099 178.94 201.508 178.701C201.936 178.423 202.277 178.026 202.49 177.555C202.819 176.937 203.21 176.357 203.659 175.824C205.356 173.791 207.716 172.54 209.689 170.829C210.645 170.035 211.461 169.077 212.101 167.999C212.647 167.023 212.987 165.94 213.097 164.821C213.271 162.526 212.714 160.236 211.511 158.294C210.268 156.216 208.482 154.537 206.356 153.449C203.943 152.261 201.341 151.529 198.675 151.288C195.856 151.015 193.022 150.919 190.191 151C187.019 151.036 183.853 151.179 180.693 151.43C177.528 151.681 174.376 152.039 171.236 152.502C168.204 152.895 165.195 153.461 162.224 154.197C159.563 154.783 157.098 156.077 155.076 157.947C154.177 158.797 153.464 159.831 152.983 160.984C152.501 162.136 152.263 163.38 152.282 164.633Z" fill="#E6E6E6"/>
<path d="M196.276 157.04H166.252C165.657 157.041 165.087 157.284 164.666 157.716C164.245 158.148 164.008 158.733 164.008 159.344V159.716C164.008 160.327 164.245 160.912 164.666 161.344C165.087 161.776 165.657 162.019 166.252 162.02H196.276C196.871 162.019 197.442 161.776 197.862 161.344C198.283 160.912 198.52 160.327 198.521 159.716V159.344C198.52 158.733 198.283 158.148 197.862 157.716C197.442 157.284 196.871 157.041 196.276 157.04V157.04Z" fill="white"/>
<path d="M196.276 163.361H166.252C165.657 163.362 165.087 163.605 164.666 164.037C164.245 164.468 164.008 165.054 164.008 165.665V166.036C164.008 166.647 164.245 167.233 164.666 167.665C165.087 168.097 165.657 168.34 166.252 168.34H196.276C196.871 168.34 197.442 168.097 197.862 167.665C198.283 167.233 198.52 166.647 198.521 166.036V165.665C198.52 165.054 198.283 164.468 197.862 164.037C197.442 163.605 196.871 163.362 196.276 163.361V163.361Z" fill="white"/>
<path d="M258.616 118.812C258.539 119.932 258.218 121.02 257.675 121.994C256.463 124.026 254.629 125.587 252.461 126.435C249.823 127.543 246.883 127.577 244.083 127.33C241.483 127.1 238.91 126.568 236.3 126.459C234.282 126.392 232.262 126.442 230.249 126.607C226.344 126.892 222.456 127.42 218.592 128.06C217.546 128.231 216.501 128.415 215.459 128.611C215.361 128.62 215.264 128.639 215.169 128.667C215.15 128.675 215.119 128.669 215.102 128.68C215.07 128.7 215.229 128.628 215.133 128.71C214.999 128.854 214.879 129.012 214.776 129.181L213.349 131.067C212.974 131.659 212.532 132.205 212.031 132.69C211.658 132.986 211.209 133.162 210.738 133.195C210.268 133.229 209.799 133.119 209.39 132.879C208.962 132.602 208.621 132.204 208.408 131.734C208.079 131.116 207.688 130.535 207.239 130.003C205.542 127.969 203.182 126.719 201.209 125.008C200.253 124.213 199.437 123.256 198.797 122.178C198.251 121.202 197.911 120.119 197.801 118.999C197.627 116.705 198.184 114.414 199.387 112.472C200.63 110.394 202.416 108.716 204.542 107.628C206.955 106.439 209.557 105.707 212.223 105.467C215.042 105.194 217.876 105.097 220.707 105.178C223.879 105.215 227.045 105.358 230.205 105.608C233.37 105.86 236.522 106.217 239.662 106.681C242.694 107.074 245.703 107.64 248.674 108.376C251.335 108.962 253.8 110.255 255.822 112.126C256.721 112.975 257.434 114.01 257.915 115.162C258.397 116.315 258.635 117.558 258.616 118.812V118.812Z" fill="#E6E6E6"/>
<path d="M212.377 113.523V113.894C212.378 114.505 212.615 115.091 213.036 115.523C213.456 115.955 214.027 116.198 214.622 116.199H244.646C245.241 116.198 245.811 115.955 246.232 115.523C246.653 115.091 246.89 114.505 246.89 113.894V113.523C246.89 112.912 246.653 112.326 246.232 111.895C245.811 111.463 245.241 111.22 244.646 111.219H214.622C214.027 111.22 213.456 111.463 213.036 111.895C212.615 112.326 212.378 112.912 212.377 113.523Z" fill="white"/>
<path d="M212.377 119.843V120.215C212.378 120.826 212.615 121.411 213.036 121.843C213.456 122.275 214.027 122.518 214.622 122.519H244.646C245.241 122.518 245.811 122.275 246.232 121.843C246.653 121.411 246.89 120.826 246.89 120.215V119.843C246.89 119.233 246.653 118.647 246.232 118.215C245.811 117.783 245.241 117.54 244.646 117.539H214.622C214.027 117.54 213.456 117.783 213.036 118.215C212.615 118.647 212.378 119.233 212.377 119.843Z" fill="white"/>
<path d="M188.89 333.227C188.799 333.227 188.708 333.225 188.616 333.221C187.545 333.181 186.499 332.876 185.567 332.332C184.635 331.788 183.845 331.021 183.264 330.096C178.913 323.419 173.573 317.48 167.437 312.494C163.722 309.446 159.841 306.612 156.087 303.871C146.404 296.802 137.284 290.144 132.222 280.945C121.185 260.885 134.183 232.945 152.751 220.415C173.579 206.361 200.974 204.157 227.476 203.868C230.23 203.838 232.986 203.823 235.743 203.823C283.494 203.842 331.144 208.315 378.106 217.188C393.722 220.145 410.068 223.769 423.203 232.563C436.261 241.304 444.198 255.07 443.423 267.634C442.293 285.975 423.355 299.68 406.11 303.263C389.673 306.675 372.598 304.369 354.521 301.927C350.53 301.388 346.404 300.831 342.323 300.346C297.976 295.084 214.668 311.304 211.143 311.998L207.647 312.685L194.079 330.61C193.469 331.427 192.683 332.088 191.783 332.542C190.883 332.996 189.893 333.23 188.89 333.227Z" fill="#F9A826"/>
<path d="M386.371 243.752H198.932C197.85 243.752 196.813 243.311 196.048 242.526C195.284 241.741 194.854 240.676 194.854 239.565C194.854 238.455 195.284 237.39 196.048 236.604C196.813 235.819 197.85 235.378 198.932 235.378H386.371C387.453 235.378 388.49 235.819 389.255 236.604C390.02 237.39 390.449 238.455 390.449 239.565C390.449 240.676 390.02 241.741 389.255 242.526C388.49 243.311 387.453 243.752 386.371 243.752Z" fill="white"/>
<path d="M386.371 269.452H198.932C198.396 269.454 197.865 269.346 197.37 269.136C196.875 268.927 196.424 268.619 196.045 268.231C195.665 267.842 195.364 267.381 195.158 266.873C194.953 266.365 194.847 265.82 194.846 265.27C194.845 264.72 194.95 264.175 195.155 263.666C195.36 263.158 195.66 262.696 196.039 262.307C196.417 261.917 196.867 261.608 197.362 261.398C197.857 261.187 198.388 261.079 198.924 261.078H386.371C387.452 261.08 388.488 261.522 389.251 262.307C390.015 263.092 390.444 264.156 390.444 265.265C390.444 266.375 390.015 267.439 389.251 268.224C388.488 269.009 387.452 269.451 386.371 269.452V269.452Z" fill="white"/>
<path d="M220.775 295.152H198.932C197.851 295.151 196.816 294.709 196.052 293.924C195.288 293.139 194.859 292.075 194.859 290.965C194.859 289.856 195.288 288.792 196.052 288.007C196.816 287.222 197.851 286.78 198.932 286.778H220.775C221.856 286.78 222.892 287.222 223.655 288.007C224.419 288.792 224.848 289.856 224.848 290.965C224.848 292.075 224.419 293.139 223.655 293.924C222.892 294.709 221.856 295.151 220.775 295.152V295.152Z" fill="white"/>
<path d="M190.695 408.009C184.803 408.009 179.044 406.215 174.145 402.854C169.246 399.494 165.428 394.717 163.173 389.129C160.918 383.54 160.328 377.391 161.478 371.458C162.627 365.525 165.464 360.076 169.63 355.798C173.797 351.521 179.105 348.608 184.883 347.428C190.662 346.248 196.652 346.854 202.095 349.169C207.538 351.483 212.191 355.403 215.464 360.433C218.738 365.462 220.485 371.376 220.485 377.425C220.476 385.533 217.334 393.307 211.75 399.041C206.165 404.774 198.593 408 190.695 408.009V408.009ZM190.695 348.421C185.108 348.421 179.646 350.122 175 353.309C170.354 356.496 166.733 361.025 164.595 366.325C162.456 371.625 161.897 377.457 162.987 383.083C164.077 388.709 166.768 393.877 170.719 397.934C174.67 401.99 179.703 404.752 185.184 405.871C190.664 406.99 196.344 406.416 201.506 404.221C206.668 402.026 211.08 398.308 214.185 393.538C217.289 388.769 218.946 383.161 218.946 377.425C218.937 369.735 215.958 362.363 210.662 356.925C205.366 351.488 198.185 348.429 190.695 348.421Z" fill="white"/>
<path d="M188.522 389.332C188.46 389.332 188.399 389.33 188.337 389.327C187.79 389.3 187.256 389.152 186.77 388.893C186.285 388.634 185.859 388.27 185.524 387.827L180.674 381.425C180.367 381.021 180.142 380.559 180.009 380.066C179.877 379.572 179.841 379.056 179.903 378.548C179.964 378.04 180.123 377.55 180.37 377.105C180.616 376.66 180.946 376.269 181.339 375.955L181.514 375.815C181.907 375.5 182.357 375.269 182.838 375.133C183.319 374.997 183.822 374.959 184.317 375.023C184.812 375.086 185.289 375.249 185.723 375.503C186.157 375.756 186.537 376.094 186.843 376.499C187.088 376.822 187.398 377.086 187.752 377.275C188.106 377.464 188.495 377.572 188.893 377.592C189.292 377.611 189.689 377.543 190.059 377.39C190.429 377.238 190.763 377.005 191.037 376.708L200.884 366.036C201.577 365.286 202.532 364.849 203.538 364.821C204.545 364.793 205.521 365.176 206.253 365.886L206.414 366.044C206.776 366.396 207.067 366.818 207.27 367.285C207.474 367.753 207.585 368.257 207.599 368.768C207.612 369.28 207.527 369.79 207.349 370.268C207.17 370.746 206.902 371.183 206.559 371.555L191.278 388.115C190.923 388.499 190.496 388.806 190.022 389.015C189.549 389.224 189.038 389.332 188.522 389.332V389.332Z" fill="#F9A826"/>
</svg>
