<svg width="42" height="40" viewBox="0 0 42 40" fill="none" xmlns="http://www.w3.org/2000/svg">
<path d="M42 0H0V40H42V0Z" fill="#F7DF1E"/>
<path d="M28.2133 31.2501C29.0593 32.5657 30.16 33.5327 32.1067 33.5327C33.742 33.5327 34.7867 32.7543 34.7867 31.6787C34.7867 30.3898 33.7133 29.9333 31.9133 29.1835L30.9267 28.7803C28.0787 27.6247 26.1867 26.1771 26.1867 23.1168C26.1867 20.2978 28.442 18.1517 31.9667 18.1517C34.476 18.1517 36.28 18.9835 37.58 21.1613L34.5067 23.0406C33.83 21.8851 33.1 21.4298 31.9667 21.4298C30.8107 21.4298 30.078 22.1282 30.078 23.0406C30.078 24.1682 30.8113 24.6247 32.5047 25.3232L33.4913 25.7257C36.8447 27.0952 38.738 28.4914 38.738 31.6305C38.738 35.0146 35.9467 36.8686 32.198 36.8686C28.5327 36.8686 26.1647 35.2051 25.006 33.0247L28.2133 31.2501ZM14.2714 31.5759C14.8913 32.6235 15.4553 33.5092 16.8113 33.5092C18.108 33.5092 18.926 33.026 18.926 31.1473V18.3663H22.8727V31.1981C22.8727 35.0901 20.4767 36.8616 16.9793 36.8616C13.8193 36.8616 11.9894 35.3041 11.0587 33.4282L14.2714 31.5759Z" fill="black"/>
</svg>
