<svg width="54" height="44" viewBox="0 0 54 44" fill="none" xmlns="http://www.w3.org/2000/svg">
<path d="M53.0254 24.9034C53.0254 22.1737 49.7864 19.5868 44.8205 17.9825C45.9665 12.6407 45.4572 8.39074 43.213 7.03008C42.6957 6.71091 42.0909 6.55973 41.4303 6.55973V8.43274C41.7964 8.43274 42.0909 8.50833 42.3376 8.65111C43.4199 9.30624 43.8894 11.8008 43.5233 15.0093C43.4358 15.7988 43.2925 16.6303 43.1175 17.4786C41.5577 17.0754 39.8546 16.7647 38.064 16.5631C36.9897 15.0093 35.8755 13.5982 34.7534 12.3635C37.3478 9.81859 39.783 8.42434 41.4383 8.42434V6.55133C39.2498 6.55133 36.3848 8.19756 33.4881 11.0533C30.5913 8.21436 27.7263 6.58493 25.5378 6.58493V8.45793C27.1852 8.45793 29.6283 9.84379 32.2227 12.3719C31.1086 13.6066 29.9944 15.0093 28.936 16.5631C27.1374 16.7647 25.4344 17.0754 23.8746 17.487C23.6915 16.6471 23.5562 15.8324 23.4607 15.0512C23.0867 11.8428 23.5483 9.34824 24.6226 8.68471C24.8614 8.53352 25.1718 8.46633 25.5378 8.46633V6.59333C24.8693 6.59333 24.2645 6.74451 23.7393 7.06368C21.503 8.42434 21.0017 12.6659 22.1556 17.9909C17.2056 19.6036 13.9825 22.1821 13.9825 24.9034C13.9825 27.6331 17.2215 30.2201 22.1874 31.8243C21.0415 37.1661 21.5508 41.4161 23.795 42.7768C24.3123 43.0959 24.9171 43.2471 25.5856 43.2471C27.7741 43.2471 30.639 41.6009 33.5358 38.7452C36.4326 41.5841 39.2975 43.2135 41.486 43.2135C42.1545 43.2135 42.7593 43.0623 43.2846 42.7432C45.5208 41.3825 46.0222 37.141 44.8683 31.8159C49.8023 30.2117 53.0254 27.6247 53.0254 24.9034ZM42.6638 19.3012C42.3694 20.3847 42.0033 21.5018 41.5895 22.6189C41.2632 21.9469 40.921 21.275 40.547 20.6031C40.1809 19.9311 39.7909 19.276 39.401 18.6377C40.5311 18.8141 41.6213 19.0324 42.6638 19.3012ZM39.019 28.2463C38.3983 29.3802 37.7616 30.4552 37.1011 31.4547C35.9153 31.5639 34.7136 31.6227 33.504 31.6227C32.3023 31.6227 31.1006 31.5639 29.9228 31.4631C29.2623 30.4636 28.6176 29.397 27.9969 28.2715C27.3921 27.1712 26.843 26.0541 26.3416 24.9286C26.835 23.8031 27.3921 22.6777 27.989 21.5774C28.6097 20.4435 29.2463 19.3684 29.9069 18.3689C31.0926 18.2597 32.2943 18.2009 33.504 18.2009C34.7057 18.2009 35.9073 18.2597 37.0852 18.3605C37.7457 19.36 38.3903 20.4267 39.011 21.5522C39.6159 22.6525 40.165 23.7695 40.6663 24.895C40.165 26.0205 39.6159 27.146 39.019 28.2463ZM41.5895 27.1544C42.0192 28.2799 42.3853 29.4054 42.6877 30.4972C41.6452 30.766 40.547 30.9928 39.4089 31.1692C39.7989 30.5224 40.1889 29.8589 40.5549 29.1786C40.921 28.5066 41.2632 27.8263 41.5895 27.1544ZM33.5199 36.1163C32.7798 35.3099 32.0397 34.4112 31.3075 33.4285C32.0238 33.4621 32.7559 33.4873 33.496 33.4873C34.2441 33.4873 34.9842 33.4705 35.7084 33.4285C34.9922 34.4112 34.252 35.3099 33.5199 36.1163ZM27.599 31.1692C26.4689 30.9928 25.3787 30.7744 24.3361 30.5056C24.6306 29.4222 24.9967 28.3051 25.4105 27.188C25.7368 27.8599 26.079 28.5318 26.453 29.2038C26.8271 29.8757 27.209 30.5308 27.599 31.1692ZM33.4801 13.6906C34.2202 14.4969 34.9603 15.3956 35.6925 16.3783C34.9762 16.3447 34.2441 16.3195 33.504 16.3195C32.7559 16.3195 32.0158 16.3363 31.2916 16.3783C32.0078 15.3956 32.7479 14.4969 33.4801 13.6906ZM27.591 18.6377C27.2011 19.2844 26.8111 19.9479 26.4451 20.6283C26.079 21.3002 25.7368 21.9721 25.4105 22.6441C24.9808 21.5186 24.6147 20.3931 24.3123 19.3012C25.3548 19.0408 26.453 18.8141 27.591 18.6377ZM20.3889 29.1534C17.5717 27.8851 15.7493 26.2221 15.7493 24.9034C15.7493 23.5848 17.5717 21.9133 20.3889 20.6535C21.0733 20.3427 21.8214 20.0655 22.5933 19.8052C23.0469 21.4514 23.6438 23.1648 24.3839 24.9202C23.6517 26.6672 23.0628 28.3723 22.6172 30.0101C21.8293 29.7497 21.0812 29.4642 20.3889 29.1534ZM24.6704 41.1557C23.5881 40.5006 23.1185 38.0061 23.4846 34.7976C23.5722 34.0081 23.7154 33.1766 23.8905 32.3283C25.4503 32.7314 27.1533 33.0422 28.9439 33.2438C30.0183 34.7976 31.1324 36.2086 32.2545 37.4433C29.6602 39.9883 27.225 41.3825 25.5697 41.3825C25.2115 41.3741 24.9091 41.2985 24.6704 41.1557ZM43.5472 34.7556C43.9212 37.9641 43.4597 40.4586 42.3853 41.1221C42.1466 41.2733 41.8362 41.3405 41.4701 41.3405C39.8228 41.3405 37.3796 39.9547 34.7852 37.4265C35.8994 36.1919 37.0135 34.7892 38.072 33.2354C39.8705 33.0338 41.5736 32.723 43.1334 32.3115C43.3164 33.1598 43.4597 33.9745 43.5472 34.7556ZM46.6111 29.1534C45.9267 29.4642 45.1786 29.7413 44.4067 30.0017C43.9531 28.3555 43.3562 26.642 42.6161 24.8866C43.3483 23.1396 43.9372 21.4346 44.3828 19.7968C45.1707 20.0571 45.9187 20.3427 46.6191 20.6535C49.4363 21.9217 51.2587 23.5848 51.2587 24.9034C51.2507 26.2221 49.4283 27.8935 46.6111 29.1534Z" fill="#61DAFB"/>
<path d="M33.496 28.7418C35.5046 28.7418 37.1329 27.0233 37.1329 24.9034C37.1329 22.7835 35.5046 21.065 33.496 21.065C31.4874 21.065 29.8591 22.7835 29.8591 24.9034C29.8591 27.0233 31.4874 28.7418 33.496 28.7418Z" fill="#61DAFB"/>
</svg>
